<svg height="200" width="155" xmlns="http://www.w3.org/2000/svg"><path d="M87.5 133.3l61.3 21.2c5.6 2.4 5.6 12.5 0 14.9l-61.3 27.3c-5.6 2.4-14.5 2.4-20.1 0L6.1 169.4c-5.6-2.4-5.6-12.3 0-14.8l61.3-21.3c5.6-2.5 14.5-2.5 20.1 0z" fill="#b64600"/><path d="M87.5 127.2l61.3 27.3c5.6 2.4 5.6 6.4 0 8.9l-61.3 27.2c-5.6 2.5-14.5 2.5-20.1 0L6.1 163.4c-5.6-2.5-5.6-6.5 0-8.9l61.3-27.3c5.6-2.4 14.5-2.4 20.1 0z" fill="#ea5d00"/><path d="M66.2 5.6h22.2l38.1 155.6c-14.3 22.6-92 20.2-98 0z" fill="#f60"/><path d="M51.8 67.3c17.8 10.2 34.7 7.1 51.3 0l8.3 34c-12.1 16.4-65 12.2-67.6-.4z" fill="#f5dece" opacity=".6"/><path d="M88.4 5.8c.1 2.2-4.9 4-11.1 4-6.1 0-11.1-1.8-11.1-4s5-4 11.1-4c6.2 0 11.2 1.8 11.1 4z" fill="#ff7a21"/><path d="M84.9 5.8c0 1.5-3.4 2.8-7.6 2.8-4.1 0-7.5-1.3-7.5-2.8 0-1.4 3.4-2.7 7.5-2.7 4.2 0 7.6 1.3 7.6 2.7z" fill="#582f00" opacity=".6"/><path d="M62.2 24c10.9 5.7 20.8 4 30.3 0l4.9 19.7c-7.2 9.8-38.3 7.7-39.9 0z" fill="#f5dece" opacity=".6"/></svg>