<svg height="683" viewBox="0 0 512 512" width="683" xmlns="http://www.w3.org/2000/svg"><path d="m420.7 10.6c-.2.2-3.3.6-6.9.9-17.2 1.1-33.4 8.6-51 23.8-3.2 2.7-5.8 5.2-5.8 5.5 0 .4 2.6 1.5 5.8 2.6 8 2.6 28.5 12.4 38.9 18.7 21.6 12.9 45.4 33.1 61.3 51.8 2.5 2.9 5.5 6.5 6.8 8 4.2 4.7 16.2 21.9 21.4 30.6 2.8 4.7 5.4 8.5 5.8 8.5 1.5 0 7.2-10.1 9.6-16.8 3.7-10.8 5.2-21.4 5.2-38.3.1-16.2-.6-21-5.1-33.4-6.5-18.4-22.3-38.5-37.8-48-10.3-6.3-24.5-11.8-33.9-13-7.4-1-13.8-1.4-14.3-.9zm-336.9.9c-.2.2-2.7.6-5.7 1-7.2.9-19.2 4.9-26.6 8.7-24 12.6-41.5 35.1-48.4 62.3-4 15.4-3.4 35.5 1.8 56.7 1.7 7.3 9.1 20.8 11.4 20.8.2 0 2.4-3.3 4.7-7.3 6.1-10.3 17.2-25.8 25.9-36.1 23.7-28.1 51-49.7 82.1-64.8 13.2-6.4 17-8.1 22.2-9.8 2.1-.6 4-1.5 4.3-2 .7-1.2-9.7-10.3-18.4-16.1-7-4.6-19.8-10.6-24.5-11.5-1.2-.2-3.2-.6-4.6-1-2.7-.6-23.7-1.4-24.2-.9z"/><path d="m243.7 34.6c-.1.1-4 .4-8.7.7-16.9 1.1-38.7 5.2-59.5 11.2-8.5 2.5-25 9.6-35.3 15.1-8 4.3-25.3 14.7-27.7 16.6-.5.4-5.3 4-10.5 7.9-53 39.8-89.8 97.7-99.5 156.6-1.9 11.3-2.2 17.6-1.9 31.8.3 15.3 1 25 1.9 26.5.2.3.7 2.9 1 5.6 1.3 9.8 7.6 31.7 12.6 43.4 3.9 9.1 14.2 29.1 18.4 35.5 3.7 5.7 14.3 20.4 15.5 21.5.3.3 1.8 2.1 3.4 4 7.6 9.3 24.6 25.6 36.6 35.1 18.7 14.8 46.1 30.1 68 38 13.5 4.9 31.1 10.1 38.5 11.4 22.6 4.1 24.8 4.4 34.5 5.2 15.1 1.3 55.3.5 60.3-1.2.6-.2 3-.7 5.2-.9 2.2-.3 5.4-.8 7-1.1 1.7-.3 4.4-.8 6-1.1 20.9-3.9 47.7-13 67.9-23.1 18.3-9 41.9-24.9 55.3-37 13-11.8 23.5-23 30.8-32.8 1.6-2.2 3.2-4.2 3.5-4.5 2.5-2.2 14.5-21.4 19.7-31.5 8.5-16.6 17.4-41.3 19.7-55 .3-1.7 1-5.7 1.5-9 2.1-11.7 2.5-16.2 2.5-30.5.1-16.6-.6-23.5-3.8-39.8-5.9-29.2-14.2-51.1-28.6-75-15.3-25.4-30.6-43-54.5-62.6-19.7-16.3-49.2-34-71.5-42.9-2.5-1-5.4-2.3-6.5-2.8-5.6-2.5-28.8-9-37.3-10.5-12.4-2.1-14.1-2.4-28.7-4-4.8-.6-35.3-1.2-35.8-.8zm-45.4 143.7c6.1 3 10.4 7.4 13.9 14 3.3 6.1 3.2 18.3-.1 25.1-5.9 12-20.2 19.4-32.1 16.4-8.2-2.1-10.6-3.3-15.5-8.2-16.2-16.2-8.9-43.1 13.5-49.6 5.3-1.6 14.5-.5 20.3 2.3zm142.3 0c24.8 12.6 21 48.2-5.9 55.1-17.3 4.4-34.6-7.9-36.4-25.9-1.8-17.8 13.1-33.3 30.8-32.1 4.3.3 8.3 1.3 11.5 2.9zm-62.4 89.6c33.3 8.7 46 31.6 27.7 50.1-5.3 5.3-17.6 11.8-26.4 14-2.7.6-5.9 1.4-7 1.7-4.7 1.1-25.7 1-32.6-.3-30.5-5.4-48.4-24.3-40.2-42.5 3.2-7 13.5-16.3 20.3-18.4 1.4-.4 3-1.1 3.5-1.5 1.5-1.1 17.6-5.2 18.2-4.7.2.3 1.6.2 3.1-.3 5-1.4 25.3-.3 33.4 1.9z"/></svg>