<svg height="45" width="260" xmlns="http://www.w3.org/2000/svg"><path d="m0 31.6c1.3-2.1 1.1-4.7 1.7-7.1 1.1-7.5 2.2-15 3.1-22.6h2.6c4.4 8.2 8.7 16.3 13.1 24.4 4.3-8.1 8.6-16.2 12.9-24.4h1.9c1.3 8.8 2.4 17.6 3.7 26.4-.1 1.1 1.2 2.9.7 3.4h-4.9c.7-2.4-.1-4.8-.3-7.2l-2.1-15.9c-4.1 7.6-8.2 15.3-12.3 23-.5-.2-1.4.1-1.6-.5-4-7.6-8.1-15.2-12.1-22.7-.9 6.5-1.9 13-2.5 19.6-.4 1.1.7 3.2-.2 3.7h-3.7zm42.8-6.1c-.2-2.5 1.7-4.7 3.9-5.7 2.4-1.2 5.1-1.6 7.8-1.8.8-.2 2.4.4 2-1 .1-1.8-.5-4-2.3-4.9-2.3-1.2-5.2-.5-7.4.9-.6.2-1.2 1.2-1.8 1 .4-1 .9-2 1.4-2.9 2.8-1.2 6-1.4 8.9-.7 2.2.6 4.3 2.4 4.6 4.7.4 2 .1 3.9.2 5.8 0 3.3-.1 6.7.5 10 .5.9-.5.8-1.1.8h-3.4c.1-.5.7-2.4-.3-1.4-2.8 2.1-6.8 2.2-9.9.8-2-.9-3.1-3.1-3.1-5.2v-.2zm13.7-6c-2.6.1-5.5.1-7.7 1.7-1.4 1-2.1 2.8-1.9 4.5 0 1.8.9 3.8 2.7 4.4 2.5.9 5.6-.2 6.9-2.6.1-2.7 0-5.3 0-8zm9.4-1c0-2.5 0-5-.4-7.5-.5-.8.6-.5 1-.6h3.6c-.2.9-.5 2.4-.3 3 1.9-1.6 4.1-3.3 6.7-3.4 1 0 2 .2 2.9.6-.3 1.4-.7 2.7-1 4-.8-.4-.9-1.7-1.9-1.9-1.8-.6-3.6.3-5 1.3-.6.5-1.7.9-1.9 1.7-.1 3.6-.1 7.2 0 10.8 0 1.7.2 3.5.5 5.2h-4.8c.7-3.3.6-6.6.6-9.8zm33.5 8.7c-.5 1.3-1 2.5-1.6 3.7-4 1.6-9 1.6-12.8-.7-4.5-2.9-5.8-9.3-3.5-14 2.2-4.3 7.2-6.5 11.9-6.1 1.2.3 3.2 0 4 1.1.4 1 .8 2.1 1.3 3.1-1.5-.8-2.8-2.2-4.6-2.4-3-.9-6.7.1-8.3 3-1.7 3.1-1.4 6.9-.4 10.2.9 2.9 3.4 5.2 6.5 5.4 2.8.3 5.7-1 7.3-3.4 0 .1.1.1.2.1zm18-9.5c.1-2.3-1-5.2-3.7-5.3-2.6-.1-5 1.7-6.9 3.4-.3 2.4 0 4.9-.1 7.4.1 2.7-.1 5.4.5 8-.1.8-1.3.3-2 .5h-2.7c1-5 .5-10.1.6-15.2-.1-4.9.2-9.9-.4-14.8-.8-1.4.7-.9 1.5-1h3.1c-.9 4.4-.5 8.9-.6 13.4 2.7-2.3 6.1-4.6 9.8-4 2.8.5 4.5 3.4 4.4 6.1.2 4.9-.3 10 .5 14.9.4 1.1-1.6.4-2.3.6h-2.3c.9-4.6.5-9.4.6-14zm17-13.9c-3.7 0-7.3.4-10.8 1.3l.6-3.3c5.9.3 11.8.1 17.7.1 2.1 0 4.3 0 6.4-.1l.6 3.3c-3.5-.9-7.1-1.3-10.8-1.3 0 7.5 0 15 .1 22.5 0 1.8.1 3.6.5 5.4h-4.9c.8-3.9.5-7.9.6-11.8zm27.5 8.5c1.8 4.7 3.6 9.3 5.5 14 1.7-4.4 3.5-8.7 5.2-13.1.6-.8.1-2.4.5-2.8h3.5c-.8 1.1-1.4 2.4-1.9 3.6-2.6 6-5.1 12-7.6 17.9-.4-.1-1.1.3-1.3-.2-1.7-4.2-3.5-8.5-5.2-12.7l-5.4 12.9c-.4-.1-1.1.3-1.2-.2-2.4-5.7-4.7-11.4-7.1-17.1-.7-1.5-1.5-2.8-2.3-4.2h5.5c-.4 2.2.8 4.1 1.5 6.1 1.3 3.3 2.6 6.5 3.9 9.8 1.9-4.7 3.7-9.3 5.6-14zm26.6 19.7c-3.8.1-7.8-1.7-9.6-5.2-1.7-3.1-1.8-7.1-.5-10.5 1.5-3.4 4.9-6.1 8.7-6.2 3.5-.3 7.1 1.3 8.9 4.4 1.2 2 1.8 4.3 1.8 6.6-5.4-.1-10.8-.2-16.1 0 .1 2.9.9 6 3.2 7.9 2.8 2.3 7.1 1.9 9.8-.3.6-.6 1.1-1.2 1.5-1.9.5.4-.2 1-.3 1.5-.3.8-.6 1.6-1 2.3-1.9 1.1-4.2 1.5-6.4 1.4zm-2.7-12.6c2.6 0 5.3 0 7.9-.1-.3-2.6-1.1-5.4-3.4-6.9-2.2-1.5-5.6-.9-7 1.4-1.1 1.6-1.6 3.6-1.6 5.5 1.3.1 2.7.1 4.1.1zm30.2-1.7c.1-1.8-.4-4-2.2-4.9-1.7-.9-3.8-.1-5.4.8-1.1.6-2.1 1.4-3 2.2 0 4.3-.1 8.5.1 12.8.1 1 .2 2 .4 3.1h-4.7c.7-3.7.5-7.5.6-11.2 0-3.1 0-6.1-.4-9.2-.5-.8.1-1 .7-.9h3.8c-.2 1.1-.5 2.7-.3 3.4 2.4-1.9 5.2-3.8 8.3-3.8 2.2 0 4.4 1.4 5.2 3.5.8 2.2.4 4.6.5 6.9 0 3 0 6.1.2 9.1-.1.6.8 1.9 0 2.2h-4.4c.8-3.6.6-7.2.6-10.8zm16.9 12.7c1.9 0 3.4-1.4 4.5-2.8.4.5-.3 1.1-.4 1.7-.2.6-.5 1.2-.7 1.8-2.4 1.2-5.5 1.4-7.9 0-1.6-1-2.3-3-2.2-4.9-.1-4.7-.1-9.4-.1-14.1-1.1 0-2.3 0-3.4.1v-1.8c1-.2 2.8.6 3.4-.4 0-2.2-.1-4.4-.5-6.6h4.7c-.5 2.3-.5 4.7-.6 7 2.5 0 5.1 0 7.6-.3-.2.7-.3 1.4-.4 2.1-2.4 0-4.8-.1-7.2-.1.1 5 0 10.1.1 15.2.1 1.5 1 3 2.6 3.1zm15.1 1c-2.7-5.8-5.3-11.5-8-17.3-.6-1.3-1.4-2.5-2.2-3.7h5.5c-.4 2.3.9 4.3 1.8 6.3 1.6 3.4 3.1 6.8 4.7 10.3 2-4.6 4-9.1 5.8-13.7.7-.8.1-2.5.6-2.9h3.5c-1.1 1.5-1.9 3.3-2.6 5-3.4 8.1-6.8 16.1-10.2 24.3-.6.7.1 2.2-.4 2.6h-3.6c.7-1.1 1.4-2.2 1.9-3.4 1.1-2.5 2.1-5 3.2-7.5z"/></svg>