<svg height="50" width="50" xmlns="http://www.w3.org/2000/svg"><path d="M33.8 4.9c9.8 4 15.6 11.6 16.1 21.3 0 12.6-11.2 22.8-25 22.8C11.2 49 0 38.8 0 26.2.3 16.3 8.2 8 16.1 4.9c5.8-2.1 12.4-2 17.7 0zm-8.8 21c-3.2 0-5.7 1.5-5.7 3.4s2.6 3.4 5.7 3.4c3.2 0 5.7-1.5 5.7-3.4s-2.6-3.4-5.7-3.4zm7-8.8c-1.6 0-2.9 1.3-2.9 2.9s1.3 2.9 2.9 2.9 2.9-1.3 2.9-2.9-1.3-2.9-2.9-2.9zm-13.9 0c-1.6 0-2.9 1.3-2.9 2.9s1.3 2.9 2.9 2.9S21 21.6 21 20s-1.3-2.9-2.9-2.9zM9 1.1c2.5-.1 4.6 1.2 6.3 2.9-6 2.1-10.7 6.4-13.7 11.8C.3 14.5.2 12.3 0 10.6c0-5.3 4-9.5 9-9.5zm32.1 0C38.6 1 36.6 2.3 34.8 4c5.9 2 10.7 6.4 13.7 11.8 1.3-1.4 1.4-3.5 1.6-5.3 0-5.2-4-9.5-9-9.5z" fill="#40a5ff"/></svg>