<svg height="308" viewBox="0 0 318 82" width="1200" xmlns="http://www.w3.org/2000/svg" xmlns:xlink="http://www.w3.org/1999/xlink"><linearGradient gradientUnits="userSpaceOnUse" x1="102.68" x2="102.68" xlink:href="#e" y1="56.59" y2="121.2"/><linearGradient id="a" gradientTransform="scale(1 .77063775)" gradientUnits="userSpaceOnUse" x1="135.99638" x2="139.07593" xlink:href="#e" y1="37.393246" y2="85.954636"/><filter id="b" color-interpolation-filters="sRGB" height="1.15" width="1.15" x="-.075" y="-.075"><feGaussianBlur stdDeviation="1.1871288"/></filter><filter id="c" color-interpolation-filters="sRGB" height="1.00096" width="1.00096" x="-.00048" y="-.00048"><feGaussianBlur stdDeviation=".0041027172"/></filter><filter id="d" color-interpolation-filters="sRGB" height="1.096" width="1.096" x="-.048" y="-.048"><feGaussianBlur stdDeviation=".5622242"/></filter><linearGradient id="e" gradientUnits="userSpaceOnUse" x1="102.68" x2="102.68" y1="56.59" y2="121.2"><stop offset="0" stop-color="#a2d3ff"/><stop offset="1" stop-color="#40a5ff"/></linearGradient><path d="m0 0h318v81.687601h-318z" fill="url(#a)" stroke-width=".87786"/><g fill="#fff"><g transform="matrix(.26467526 0 0 .26467526 133.39955 15.295117)"><path d="m139.34 159.4c-11.84 7.1-25.68 9.92-39.32 10.24-13.46-.27-27.5-3.07-39.1-10.24zm21.49-18.48c-2.8 4.1-6.6 7.35-10.24 10.67h-100.89a63.7 63.7 0 0 1 -10.21-10.67zm9.53-16.71c-1.1 3.67-3.13 6.94-5.07 10.2h-130.25a48.41 48.41 0 0 1 -5.06-10.2zm3.61-14.13a38.42 38.42 0 0 1 -1.85 8.98h-61.82c3.64-1.37 6.68-4.2 7.01-8.2l-.06-.78zm-90.6 0-.06.77c.2 4.07 3.6 6.8 7.14 8.2h-62.25c-1.09-2.88-1.51-5.94-1.85-8.97zm90.89-12.62c.28 2.34.14.96.36 4.14-.1 3.83.03 2.34-.2 4.49h-59.1c-3.52-4.2-9.89-5.23-15-5.38-4.39 0-12.35 1.49-15.06 5.38h-59.34c-.24-2.15-.1-.66-.2-4.5.17-3.21.03-1.83.32-4.13zm-73.54-64.01c9.07.04 17.95 1.6 25.86 4.59 24.1 9.67 44.1 30.18 47.35 56.74h-147.56c3.51-25.98 24.22-46.7 47.38-56.74a78.7 78.7 0 0 1 26.97-4.59zm-21 41a8.6600058 8.6600058 0 1 0 .02 17.32 8.67 8.67 0 0 0 -.02-17.33zm41.48 0a8.6600058 8.6600058 0 1 0 .02 17.32 8.67 8.67 0 0 0 -.02-17.33z"/><path d="m53.95 26.69c6.92.23 12.54 4.08 17.42 8.66-17.9 6.27-31.93 19.1-40.88 35.22-3.88-3.88-4.18-10.45-4.78-15.52 0-15.82 11.94-28.35 26.86-28.35zm92.49 0h1.38c14.92 0 26.86 12.54 26.86 28.36-.6 5.07-.9 11.64-4.78 15.52-8.95-16.12-22.98-28.95-40.88-35.22 4.9-5.05 10.44-7.98 17.42-8.66z"/></g><circle cx="102.18804" cy="42.166821" filter="url(#b)" opacity=".45" r="18.994061" stroke-width="1.19101" transform="matrix(1.5391305 0 0 1.5391305 -122.71154 -24.951754)"/><circle cx="85.853149" cy="42.503155" filter="url(#d)" opacity=".3" r="14.055605" stroke-width=".881347"/><circle cx="116.73672" cy="43.254219" filter="url(#c)" opacity=".15" r="10.256793" stroke-width=".643145" transform="matrix(.90341148 0 0 .90341148 12.882005 4.670918)"/><circle cx="102.18804" cy="42.166821" filter="url(#b)" opacity=".45" r="18.994061" stroke-width="1.19101" transform="matrix(-1.5391305 0 0 1.5391305 440.57832 -24.209406)"/><circle cx="269.21313" cy="45.472546" filter="url(#d)" opacity=".3" r="14.055605" stroke-width=".881347" transform="matrix(-1 0 0 1 501.22678 -2.227045)"/><circle cx="116.73672" cy="43.254219" filter="url(#c)" opacity=".15" r="10.256793" stroke-width=".643145" transform="matrix(-.90341148 0 0 .90341148 304.98478 5.413266)"/></g></svg>