<svg height="308" viewBox="0 0 318 82" width="1200" xmlns:xlink="http://www.w3.org/1999/xlink" xmlns="http://www.w3.org/2000/svg"><linearGradient id="b" gradientTransform="matrix(1.00466 0 0 .77358 -.74 0)" gradientUnits="userSpaceOnUse" x1="135.996" x2="139.076" xlink:href="#a" y1="37.393" y2="85.955"/><filter id="c" color-interpolation-filters="sRGB" height="1.15" width="1.15" x="-.075" y="-.075"><feGaussianBlur stdDeviation="1.187"/></filter><filter id="e" color-interpolation-filters="sRGB" height="1.001" width="1.001" x="0" y="0"><feGaussianBlur stdDeviation=".004"/></filter><filter id="d" color-interpolation-filters="sRGB" height="1.096" width="1.096" x="-.048" y="-.048"><feGaussianBlur stdDeviation=".562"/></filter><linearGradient id="a" gradientUnits="userSpaceOnUse" x1="102.68" x2="102.68" y1="56.59" y2="121.2"><stop offset="0" stop-color="#a2d3ff"/><stop offset="1" stop-color="#40a5ff"/></linearGradient><path d="M-.74 0h319.48v82H-.74z" fill="url(#b)"/><g fill="#fff"><g transform="matrix(.26468 0 0 .26468 133.4 15.295)"><path d="M139.34 159.4c-11.84 7.1-25.68 9.92-39.32 10.24-13.46-.27-27.5-3.07-39.1-10.24zm21.49-18.48c-2.8 4.1-6.6 7.35-10.24 10.67H49.7a63.7 63.7 0 0 1-10.21-10.67zm9.53-16.71c-1.1 3.67-3.13 6.94-5.07 10.2H35.04a48.41 48.41 0 0 1-5.06-10.2zm3.61-14.13a38.42 38.42 0 0 1-1.85 8.98H110.3c3.64-1.37 6.68-4.2 7.01-8.2l-.06-.78zm-90.6 0l-.06.77c.2 4.07 3.6 6.8 7.14 8.2H28.2c-1.09-2.88-1.51-5.94-1.85-8.97zm90.89-12.62c.28 2.34.14.96.36 4.14-.1 3.83.03 2.34-.2 4.49h-59.1c-3.52-4.2-9.89-5.23-15-5.38-4.39 0-12.35 1.49-15.06 5.38H25.92c-.24-2.15-.1-.66-.2-4.5.17-3.21.03-1.83.32-4.13zm-73.54-64.01c9.07.04 17.95 1.6 25.86 4.59 24.1 9.67 44.1 30.18 47.35 56.74H26.37c3.51-25.98 24.22-46.7 47.38-56.74a78.7 78.7 0 0 1 26.97-4.59zm-21 41a8.66 8.66 0 1 0 .02 17.32 8.67 8.67 0 0 0-.02-17.33zm41.48 0a8.66 8.66 0 1 0 .02 17.32 8.67 8.67 0 0 0-.02-17.33z"/><path d="M53.95 26.69c6.92.23 12.54 4.08 17.42 8.66-17.9 6.27-31.93 19.1-40.88 35.22-3.88-3.88-4.18-10.45-4.78-15.52 0-15.82 11.94-28.35 26.86-28.35zm92.49 0h1.38c14.92 0 26.86 12.54 26.86 28.36-.6 5.07-.9 11.64-4.78 15.52-8.95-16.12-22.98-28.95-40.88-35.22 4.9-5.05 10.44-7.98 17.42-8.66z"/></g><circle cx="102.188" cy="42.167" filter="url(#c)" opacity=".45" r="18.994" transform="translate(-122.712 -24.952) scale(1.53913)"/><circle cx="85.853" cy="42.503" filter="url(#d)" opacity=".3" r="14.056"/><circle cx="116.737" cy="43.254" filter="url(#e)" opacity=".15" r="10.257" transform="translate(12.882 4.67) scale(.90341)"/><circle cx="102.188" cy="42.167" filter="url(#c)" opacity=".45" r="18.994" transform="matrix(-1.53913 0 0 1.53913 440.578 -24.21)"/><circle cx="269.213" cy="45.473" filter="url(#d)" opacity=".3" r="14.056" transform="matrix(-1 0 0 1 501.227 -2.227)"/><circle cx="116.737" cy="43.254" filter="url(#e)" opacity=".15" r="10.257" transform="matrix(-.90341 0 0 .90341 304.985 5.413)"/></g></svg>