<svg height="900" width="900" xmlns="http://www.w3.org/2000/svg" xmlns:xlink="http://www.w3.org/1999/xlink"><linearGradient id="a" gradientUnits="userSpaceOnUse" x1="383" x2="383" y1="-.4" y2="744.2"><stop offset="0" stop-color="#1095f5"/><stop offset="1" stop-color="#f52ce9"/></linearGradient><path d="m0 0h900v900h-900z" fill="url(#a)" stroke-width=".75"/><path d="m1021 900-439-530-418 530z" fill="#e217d7"/><path d="m1021 900-439-530-84 530z" fill="#7a1377"/><path d="m441 900h-876l458-280z" fill="#d613ce"/><path d="m441 900h-479l61-280z" fill="#7d107a"/><path d="m501 900 327-417 349 417z" fill="#cb0ec5"/><path d="m787 900 41-417 349 417z" fill="#800d7e"/><path d="m-8 900 274-241 245 241z" fill="#c009bc"/><path d="m511 900h-299l54-241z" fill="#820981"/><path d="m721 900h614l-309-315z" fill="#b504b3"/><path d="m990 900h345l-309-315z" fill="#850585"/><path d="m350 900h485l-239-251z" fill="#a0a"/><path d="m596 649-28 251h267z" fill="#808"/></svg>