<svg xmlns="http://www.w3.org/2000/svg" width="1200" height="400" viewBox="0 0 318 106"><defs><filter id="b" width="1.09" height="1.1" x="-.05" y="-.05" color-interpolation-filters="sRGB"><feGaussianBlur stdDeviation="2.13"/></filter><filter id="a" width="1.09" height="1.1" x="-.05" y="-.05" color-interpolation-filters="sRGB"><feGaussianBlur stdDeviation="2.13"/></filter></defs><path fill="#40a5ff" fill-opacity=".25" d="M85.6 8.7c21.28 8.68 33.88 25.19 34.97 46.26 0 27.37-24.33 49.52-54.3 49.52-29.77 0-54.1-22.15-54.1-49.52.66-21.5 17.82-39.53 34.98-46.27 12.6-4.56 26.93-4.34 38.44 0zM66.47 54.3c-6.95 0-12.38 3.26-12.38 7.4 0 4.12 5.65 7.38 12.38 7.38 6.95 0 12.38-3.26 12.38-7.39s-5.65-7.38-12.38-7.38zm15.2-19.1a6.3 6.3 0 00-6.3 6.3 6.3 6.3 0 106.3-6.3zm-30.19 0a6.3 6.3 0 00-6.3 6.3 6.3 6.3 0 106.3-6.3zM31.72.43c5.44-.22 10 2.6 13.69 6.3-13.03 4.56-23.24 13.9-29.76 25.63-2.82-2.83-3.04-7.6-3.48-11.3C12.18 9.56 20.88.44 31.73.44zm69.73 0c-5.43-.22-9.77 2.6-13.68 6.3 12.81 4.34 23.24 13.9 29.76 25.63 2.82-3.04 3.04-7.6 3.47-11.52C121 9.56 112.31.22 101.45.22z" filter="url(#a)" transform="translate(-45.2 -31.32) scale(1.62956)" style="mix-blend-mode:normal"/><path fill="#40a5ff" fill-opacity=".25" d="M178.37 7.8c13.91 5.69 22.15 16.47 22.85 30.24 0 17.89-15.9 32.36-35.48 32.36-19.45 0-35.34-14.47-35.34-32.36.42-14.05 11.64-25.83 22.85-30.23 8.23-2.98 17.6-2.84 25.12 0zm-12.49 29.81c-4.54 0-8.09 2.13-8.09 4.83s3.7 4.83 8.1 4.83c4.53 0 8.08-2.13 8.08-4.83s-3.69-4.83-8.09-4.83zm9.94-12.49a4.12 4.12 0 00-4.12 4.12 4.12 4.12 0 004.12 4.12 4.12 4.12 0 004.11-4.12 4.12 4.12 0 00-4.11-4.12zm-19.73 0a4.12 4.12 0 00-4.12 4.12 4.12 4.12 0 004.12 4.12 4.12 4.12 0 004.11-4.12 4.12 4.12 0 00-4.11-4.12zm-12.92-22.7c3.55-.15 6.53 1.7 8.94 4.11-8.51 2.98-15.18 9.08-19.44 16.75-1.85-1.85-1.99-4.97-2.27-7.38 0-7.52 5.67-13.49 12.77-13.49zm45.56 0c-3.54-.15-6.38 1.7-8.94 4.11 8.38 2.84 15.19 9.08 19.45 16.75 1.84-1.99 1.98-4.97 2.27-7.52 0-7.38-5.68-13.49-12.78-13.49z"/><path fill="#40a5ff" fill-opacity=".25" d="M85.6 8.7c21.28 8.68 33.88 25.19 34.97 46.26 0 27.37-24.33 49.52-54.3 49.52-29.77 0-54.1-22.15-54.1-49.52.66-21.5 17.82-39.53 34.98-46.27 12.6-4.56 26.93-4.34 38.44 0zM66.47 54.3c-6.95 0-12.38 3.26-12.38 7.4 0 4.12 5.65 7.38 12.38 7.38 6.95 0 12.38-3.26 12.38-7.39s-5.65-7.38-12.38-7.38zm15.2-19.1a6.3 6.3 0 00-6.3 6.3 6.3 6.3 0 106.3-6.3zm-30.19 0a6.3 6.3 0 00-6.3 6.3 6.3 6.3 0 106.3-6.3zM31.72.43c5.44-.22 10 2.6 13.69 6.3-13.03 4.56-23.24 13.9-29.76 25.63-2.82-2.83-3.04-7.6-3.48-11.3C12.18 9.56 20.88.44 31.73.44zm69.73 0c-5.43-.22-9.77 2.6-13.68 6.3 12.81 4.34 23.24 13.9 29.76 25.63 2.82-3.04 3.04-7.6 3.47-11.52C121 9.56 112.31.22 101.45.22z" filter="url(#b)" transform="translate(164.1 -24.21) scale(1.50169)"/></svg>