<svg height="400" viewBox="0 0 318 106" width="1200" xmlns="http://www.w3.org/2000/svg" xmlns:xlink="http://www.w3.org/1999/xlink"><linearGradient id="a" gradientUnits="userSpaceOnUse" x1="102.68" x2="102.68" y1="56.59" y2="121.2"><stop offset="0" stop-color="#a2d3ff"/><stop offset="1" stop-color="#40a5ff"/></linearGradient><radialGradient id="b" cx="159.14" cy="3.06" gradientTransform="matrix(1 0 0 .399 0 35.13)" gradientUnits="userSpaceOnUse" r="159"><stop offset="0" stop-color="#fff"/><stop offset="1" stop-color="#eee"/></radialGradient><path d="m0 0h318v106h-318z" fill="url(#b)"/><g fill="url(#a)" transform="matrix(.42094 0 0 .42094 116.74 -7.04)"><path d="m139.34 159.4c-11.84 7.1-25.68 9.92-39.32 10.24-13.46-.27-27.5-3.07-39.1-10.24zm21.49-18.48c-2.8 4.1-6.6 7.35-10.24 10.67h-100.89a63.7 63.7 0 0 1 -10.21-10.67zm9.53-16.71c-1.1 3.67-3.13 6.94-5.07 10.2h-130.25a48.41 48.41 0 0 1 -5.06-10.2zm3.61-14.13a38.42 38.42 0 0 1 -1.85 8.98h-61.82c3.64-1.37 6.68-4.2 7.01-8.2l-.06-.78zm-90.6 0-.06.77c.2 4.07 3.6 6.8 7.14 8.2h-62.25c-1.09-2.88-1.51-5.94-1.85-8.97zm90.89-12.62c.28 2.34.14.96.36 4.14-.1 3.83.03 2.34-.2 4.49h-59.1c-3.52-4.2-9.89-5.23-15-5.38-4.39 0-12.35 1.49-15.06 5.38h-59.34c-.24-2.15-.1-.66-.2-4.5.17-3.21.03-1.83.32-4.13zm-73.54-64.01c9.07.04 17.95 1.6 25.86 4.59 24.1 9.67 44.1 30.18 47.35 56.74h-147.56c3.51-25.98 24.22-46.7 47.38-56.74a78.7 78.7 0 0 1 26.97-4.59zm-21 41a8.66 8.66 0 1 0 .02 17.32 8.67 8.67 0 0 0 -.02-17.33zm41.48 0a8.66 8.66 0 1 0 .02 17.32 8.67 8.67 0 0 0 -.02-17.33z"/><path d="m53.95 26.69c6.92.23 12.54 4.08 17.42 8.66-17.9 6.27-31.93 19.1-40.88 35.22-3.88-3.88-4.18-10.45-4.78-15.52 0-15.82 11.94-28.35 26.86-28.35zm92.49 0h1.38c14.92 0 26.86 12.54 26.86 28.36-.6 5.07-.9 11.64-4.78 15.52-8.95-16.12-22.98-28.95-40.88-35.22 4.9-5.05 10.44-7.98 17.42-8.66z"/></g><path d="m0 35.42s31.2-11.06 67.12-6.53c31.8 4 67.01 23.66 92.02 23.66 25.11 0 59.33-18.45 91.17-22.47 35.66-4.51 67.69 5.34 67.69 5.34v70.58h-318z" fill="#cacaca" opacity=".95"/><path d="m0 55.77s31.2-7.87 67.12-4.65c31.8 2.85 67.01 16.84 92.02 16.84 25.11 0 59.33-13.13 91.17-16 35.66-3.2 67.69 3.81 67.69 3.81v50.23h-318z" fill="#a9a9a9"/><path d="m0 72.58s31.2-5.24 67.12-3.1c31.8 1.9 67.01 11.2 92.02 11.2 25.11 0 59.33-8.73 91.17-10.63a373.71 373.71 0 0 1 67.69 2.53v33.42h-318z" fill="#898989"/></svg>