<svg xmlns="http://www.w3.org/2000/svg" width="1024" height="1024"><defs/><path fill="#39ace6" d="M1018 41h3l1 3-54 262v1h-9l-9-2-9-1a1446 1446 0 00-137-15l-16 335-3-5v-1l-1-1h-2v-2l-4-3-3-3-12-9-14-9-8-4-7-4h-1l-1-2 15-350h5l16 1 18 1 35 2c12 0 23 2 35 3l17 2 18 2h4l6 1 11 1 9 2 31-157-2-1-5-2-69-12a1226 1226 0 00-179-13h-34l-1 4-2 6-2 6-3 12-5 13-12 21-14 20a189 189 0 01-144 68l-19-1-18-2a170 170 0 01-50-17 187 187 0 01-74-70l-30 10-31 12a700 700 0 00-120 53l-29 16-30 16-1 1-3 2-2 1 66 146 9-5 9-4a1138 1138 0 01127-56h1l88 351a581 581 0 01143-41 600 600 0 01106-2l33 4 34 10c10 5 20 9 28 15 10 7 18 14 25 22s12 17 16 27a104 104 0 01-2 80l-9 14v2l-1 1-2 2-1 2 1 2 1 2v1l1 2 4 8 1 8c3 11 3 22 2 33a137 137 0 01-40 83 322 322 0 01-116 63 639 639 0 01-72 17l-18 3-16 1-11 1-4-61h2l1-1h6l3-2h14l34-7 34-8 32-10c11-3 20-8 30-12a159 159 0 0046-37c4-4 7-9 9-13s3-9 3-14v-10l-5 4-3 2-4 2c-9 6-19 10-29 15a391 391 0 01-99 30l-35 5-35 4h-6c-11 0-21 0-30-2-10 0-18-2-26-4-12-3-23-8-32-14-8-5-15-12-19-21-4-8-7-17-6-27 0-10 3-19 7-28 4-8 11-16 19-23a181 181 0 0157-31l34-10a363 363 0 0183-12l16-1h19l19 2 18 2 15 4 9 2 7 3h2l1 1 2 1-1 1c-6 14-16 25-32 32-16 9-27 14-34 16h-1l-1-2h-19l-17 1-17 1-34 5a219 219 0 00-50 15l-14 6-8 4a68 68 0 00-6 4l-5 4-5 5 2 1 6 1v1l8 1 8 1 9 1h25l34-3 35-5a313 313 0 0065-20l15-6 15-8 12-7 14-9c7-6 13-13 20-22 7-8 10-17 10-28l-3-15c-1-4-4-8-7-11l-11-9-14-7a217 217 0 00-66-11l-10-1h-10a404 404 0 00-60 5 452 452 0 00-91 22l-33 14c-10 3-19 7-29 12l-32 17-2 1-88-365-4 2-4 2a1051 1051 0 00-124 63l-2 1L2 206l1-1 5-4a28 28 0 007-5h2c5-3 10-5 14-9l16-9 28-16 29-16a1274 1274 0 01249-98l2-1v1a137 137 0 0039 69 134 134 0 0088 34l6-1h5a139 139 0 0086-43c13-14 22-30 27-48 6-18 8-37 5-56h2l43-2 44-1h27l69 3a1289 1289 0 01199 30l2 1 4 1 8 2c2 1 5 1 7 3h2l2 1z"/></svg>