<svg xmlns="http://www.w3.org/2000/svg" width="1024" height="1024"><path d="M1024 349.099l-.768-3.712-.725-2.133c-.427-1.024-.768-2.133-1.28-3.2-.128-.768-.64-1.451-.853-2.133l-1.493-2.859-1.28-2.133-1.877-2.56-1.963-1.92-2.56-1.92-1.963-1.28-2.56-1.877-1.877-1.707-.64-.853L536.748 8.108c-14.805-9.899-33.963-9.899-48.725 0L14.252 324.353l-1.621 1.707-2.133 2.389-1.579 1.92-2.133 2.56c-.853.725-1.28 1.28-1.28 1.963l-2.133 2.56-.853 2.56c-.853.427-.853 1.707-1.28 2.987l-.427 2.133c-.811 1.323-.811 2.603-.811 3.883v319.872c0 1.877.128 3.84.427 5.76l.427 1.963c.213 1.28.427 2.56.853 3.669l.64 2.133c.427 1.152.683 2.261 1.152 3.2l.939 2.133c0 .427.64 1.707 1.28 2.56L7 692.012c.64.427 1.28 1.707 1.92 2.56l1.28 1.707 1.707 1.707c.427.555.427 1.28 1.28 1.28l2.56 1.792 1.707 1.28.427.597 468.053 312.747c6.997 5.12 16 6.955 24.32 6.955s16.64-2.56 24.32-7.68l476.075-315.989 2.219-2.475 1.408-1.92 1.707-2.56 1.28-2.133 1.28-2.987.683-2.219 1.28-3.285.64-1.92 1.28-3.413v-320c0-2.133 0-4.053-.683-5.973l-.597-1.92 1.877.128zM512.427 617.045L356.694 512.938l155.733-104.192L668.16 512.853zm-44.118-284.757L277.461 459.861 123.306 356.778l345.003-229.973zm-270.08 180.608L88.064 586.709V439.466zm79.232 53.333l190.848 127.573v205.653L123.306 669.439l154.368-103.125zm278.912 127.574l190.891-127.147 154.155 103.253-345.045 229.973zm270.08-180.48l110.208-73.387v147.456zm-79.146-52.907L556.459 332.8V126.72l344.96 229.973-154.112 103.04z"/></svg>