<svg xmlns="http://www.w3.org/2000/svg" width="1024" height="1024"><path fill="#607d8b" d="M52.053 0c-1.28 3.968-2.56 7.893-2.56 13.141v991.104c0 9.259 2.603 14.507 7.851 19.755l487.04-515.968zm525.184 542.208l125.909 129.92-179.755 102.4s-228.48 129.877-354.475 202.197zm34.176-35.456l135.083 140.459c21.163-11.776 186.496-106.325 210.091-119.467 24.917-14.421 22.4-34.133 1.237-44.629-19.584-10.88-184.917-105.6-209.92-120.96L611.243 506.88zm-34.261-34.133l127.317-135.211-181.717-103.723S226.517 64.213 127.957 7.637l449.28 464.981z"/></svg>