<svg xmlns="http://www.w3.org/2000/svg" width="1024" height="1024"><path fill="#0077b5" d="M872.405 872.619H720.768V635.008c0-56.661-1.152-129.579-79.019-129.579-79.061 0-91.136 61.653-91.136 125.397v241.792H398.976V383.999H544.64v66.603h1.963c20.352-38.4 69.845-78.933 143.787-78.933 153.643 0 182.059 101.12 182.059 232.747zM227.712 317.141c-48.811 0-88.021-39.509-88.021-88.107 0-48.555 39.253-88.021 88.021-88.021 48.64 0 88.064 39.467 88.064 88.021 0 48.597-39.467 88.107-88.064 88.107zm76.032 555.478H151.68V384h152.064zM948.267 0H75.563C33.792 0 0 33.024 0 73.771V950.23c0 40.789 33.792 73.771 75.563 73.771h872.576c41.728 0 75.861-32.981 75.861-73.771V73.771C1024 33.024 989.867 0 948.139 0z"/></svg>