<svg xmlns="http://www.w3.org/2000/svg" width="1024" height="1024"><path fill="#1ab7ea" d="M1023.019 273.749c-4.48 99.755-74.197 236.501-208.811 409.984C674.773 864.938 557.099 955.52 460.501 955.52c-60.117 0-109.995-55.211-151.595-165.589L227.071 486.4c-30.677-110.251-63.488-165.461-98.645-165.461-7.637 0-34.389 16.128-80.256 48.299L-.001 307.073c50.56-44.544 100.309-88.917 149.376-133.461 67.371-58.368 117.973-88.96 151.637-92.117 79.659-7.68 128.683 46.933 147.072 163.755 19.84 125.995 33.664 204.331 41.429 234.965 22.997 104.533 48.256 156.757 75.776 156.757 21.419 0 53.589-33.963 96.64-101.76 42.837-67.797 65.707-119.339 68.779-154.795 6.144-58.496-16.853-87.936-68.864-87.936-24.491 0-49.792 5.163-75.819 16.683C636.628 144.129 732.542 63.532 874.537 68.652c105.515 2.56 154.795 70.997 149.035 204.672z"/></svg>