<svg xmlns="http://www.w3.org/2000/svg" width="1024" height="1024"><path fill="#007acc" d="M987.733 110.379L776.96 8.96c-8.085-3.983-17.599-6.313-27.657-6.313-17.61 0-33.553 7.141-45.089 18.685L300.587 389.545 124.8 256.084c-7.069-5.407-16.034-8.664-25.759-8.664-11.063 0-21.141 4.215-28.717 11.126l-56.372 51.255C5.357 317.635-.015 328.876-.015 341.372c0 12.476 5.355 23.701 13.891 31.503l.033.03 152.448 139.093L13.909 651.091C5.34 658.922-.015 670.148-.015 682.624c0 12.496 5.372 23.738 13.933 31.541l.034.03L70.4 765.438a42.441 42.441 0 0 0 28.684 11.096 42.437 42.437 0 0 0 25.861-8.739l-.103.075 175.787-133.461 403.627 368.213c11.524 11.547 27.457 18.69 45.058 18.69 10.055 0 19.565-2.331 28.021-6.483l-.375.166 210.859-101.419c21.585-10.592 36.181-32.41 36.181-57.638v-.05.003-687.829-.006c0-25.261-14.635-47.104-35.889-57.512l-.378-.167zM768.171 744.448L461.91 512l306.261-232.448z"/></svg>