<svg xmlns="http://www.w3.org/2000/svg" width="314.7" height="48.3"><path d="M55 37.6c1.3-2 1-4.7 1.7-7 1-7.6 2.2-15 3-22.7h2.7l13 24.4c4.4-8 8.7-16.2 13-24.4h1.9L94 34.3c-.1 1.1 1.2 3 .7 3.4h-5c.8-2.4 0-4.8-.2-7.2l-2.1-15.9-12.3 23c-.5-.2-1.4.1-1.6-.5L61.4 14.4c-1 6.5-2 13-2.5 19.6-.4 1.1.7 3.2-.2 3.7H55zm42.8-6c-.2-2.6 1.7-4.8 3.9-5.8 2.4-1.2 5-1.6 7.8-1.8.8-.2 2.4.4 2-1 0-1.8-.5-4-2.3-4.9-2.3-1.2-5.2-.5-7.4 1-.6.1-1.2 1.1-1.8 1l1.4-3c2.8-1.2 6-1.4 8.9-.7 2.2.6 4.3 2.4 4.6 4.7.4 2 0 4 .2 5.8 0 3.3-.1 6.7.5 10 .5 1-.5.8-1.1.8H111c0-.5.7-2.4-.3-1.4a10 10 0 0 1-10 .8c-2-.9-3-3-3-5.2v-.2zm13.7-6c-2.6 0-5.5 0-7.7 1.6a4.9 4.9 0 0 0-2 4.5c0 1.8 1 3.8 2.8 4.4 2.5 1 5.6-.2 6.9-2.6v-8zm9.4-1c0-2.6 0-5-.4-7.6-.5-.8.6-.5 1-.6h3.6c-.2 1-.5 2.4-.3 3 1.9-1.6 4-3.3 6.7-3.4 1 0 2 .2 2.9.6l-1 4c-.8-.4-1-1.7-2-1.9-1.7-.6-3.5.3-5 1.3-.5.5-1.6 1-1.8 1.7v10.8c0 1.7.2 3.5.5 5.2h-4.8c.7-3.3.6-6.6.6-9.8v-3.4zm33.5 8.6l-1.6 3.7c-4 1.6-9 1.6-12.8-.7-4.5-2.9-5.8-9.3-3.5-14 2.2-4.3 7.2-6.5 11.9-6 1.2.2 3.2 0 4 1l1.3 3.1c-1.5-.8-2.8-2.2-4.6-2.4-3-.9-6.7.1-8.3 3-1.7 3.1-1.4 7-.4 10.2a7.5 7.5 0 0 0 6.5 5.4c2.8.3 5.7-1 7.3-3.4l.2.1zm18-9.5c0-2.3-1-5.2-3.7-5.3-2.6 0-5 1.7-7 3.4-.2 2.4 0 5 0 7.4 0 2.7-.1 5.4.5 8-.1.8-1.3.3-2 .5h-2.7c1-5 .5-10 .6-15.2-.1-4.9.2-9.9-.4-14.8-.8-1.4.7-.9 1.5-1h3c-.8 4.4-.4 9-.5 13.4 2.7-2.3 6-4.6 9.8-4 2.8.5 4.5 3.4 4.4 6.1.2 5-.3 10 .5 15 .4 1-1.6.3-2.3.5h-2.3c.9-4.6.5-9.4.6-14zm17-13.9c-3.7 0-7.3.4-10.8 1.3l.6-3.3c5.9.3 11.8.1 17.7.1h6.4l.6 3.2c-3.5-.9-7.1-1.3-10.8-1.3v22.5c0 1.8.2 3.6.6 5.4h-5c.9-3.9.6-7.9.7-11.8V10zm27.5 8.5l5.5 14 5.2-13c.6-.9 0-2.5.5-2.9h3.5c-.8 1.1-1.4 2.4-2 3.6l-7.5 18c-.4-.2-1.1.2-1.3-.3L215.6 25l-5.4 13c-.4-.2-1.1.2-1.2-.3l-7.1-17c-.7-1.6-1.5-2.9-2.3-4.3h5.5c-.4 2.2.8 4.1 1.5 6.1l3.9 9.8 5.6-14zM243.5 38c-3.8.1-7.8-1.7-9.6-5.2a12.8 12.8 0 0 1-.5-10.5c1.5-3.4 4.9-6 8.7-6.2a9.4 9.4 0 0 1 8.9 4.4c1.2 2 1.8 4.3 1.8 6.6-5.4 0-10.8-.2-16.1 0 0 3 .9 6 3.2 8 2.8 2.2 7 1.8 9.8-.4a9 9 0 0 0 1.5-1.9c.5.4-.2 1-.3 1.5a16 16 0 0 1-1 2.3 11.8 11.8 0 0 1-6.4 1.4zm-2.7-12.6h7.9c-.3-2.7-1.1-5.5-3.4-7-2.2-1.5-5.6-.9-7 1.4a9.8 9.8 0 0 0-1.6 5.5l4 .1zm30.2-1.7c0-1.8-.4-4-2.2-4.9-1.7-.9-3.8 0-5.4.8-1.1.6-2.1 1.4-3 2.2 0 4.3-.1 8.5 0 12.8l.5 3.1h-4.7c.7-3.7.5-7.5.6-11.2 0-3 0-6-.4-9.2-.5-.8 0-1 .7-.9h3.8c-.2 1.1-.5 2.7-.3 3.4 2.4-1.9 5.2-3.8 8.3-3.8 2.2 0 4.4 1.4 5.2 3.5.8 2.2.4 4.6.5 7 0 3 0 6 .2 9-.1.6.8 2 0 2.2h-4.4c.8-3.6.6-7.2.6-10.8v-3.2zm16.9 12.7c1.9 0 3.4-1.4 4.5-2.8.4.5-.3 1.1-.4 1.7l-.7 1.8a8.5 8.5 0 0 1-8 0c-1.5-1-2.2-3-2.1-4.9l-.1-14h-3.4v-1.8c1-.2 2.8.6 3.4-.4 0-2.2-.1-4.4-.5-6.6h4.7c-.5 2.3-.5 4.7-.6 7 2.5 0 5 0 7.6-.3l-.4 2.1h-7.2v15.1c.2 1.5 1 3 2.7 3.1zm15 1c-2.6-5.8-5.2-11.5-8-17.3-.5-1.3-1.3-2.5-2.1-3.7h5.5c-.4 2.3.9 4.3 1.8 6.3l4.7 10.3c2-4.6 4-9 5.8-13.7.7-.8 0-2.5.6-2.9h3.5a23.8 23.8 0 0 0-2.6 5l-10.2 24.3c-.6.7 0 2.2-.4 2.6h-3.6c.7-1 1.4-2.2 1.9-3.4 1-2.5 2-5 3.2-7.5z"/><path fill="#40a5ff" d="M33.8 3.9c9.8 4 15.6 11.6 16.1 21.3 0 12.6-11.2 22.8-25 22.8C11.2 48 0 37.8 0 25.2.3 15.3 8.2 7 16.1 3.9c5.8-2.1 12.4-2 17.7 0zm-8.8 21c-3.2 0-5.7 1.5-5.7 3.4s2.6 3.4 5.7 3.4c3.2 0 5.7-1.5 5.7-3.4s-2.6-3.4-5.7-3.4zm7-8.8a2.9 2.9 0 1 0 0 5.8 2.9 2.9 0 0 0 0-5.8zm-13.9 0a2.9 2.9 0 1 0 0 5.8 2.9 2.9 0 0 0 0-5.8zM9 .1c2.5-.1 4.6 1.2 6.3 2.9-6 2.1-10.7 6.4-13.7 11.8C.3 13.5.2 11.3 0 9.6 0 4.3 4 .1 9 .1zm32.1 0C38.6 0 36.6 1.3 34.8 3c5.9 2 10.7 6.4 13.7 11.8 1.3-1.4 1.4-3.5 1.6-5.3 0-5.2-4-9.5-9-9.5z"/></svg>