<svg xmlns="http://www.w3.org/2000/svg" width="1024" height="1024"><path fill="#e41321" d="M709.675 696.491H573.184c-7.546-.024-13.653-6.147-13.653-13.696v-.045.002-342.528c0-7.541 6.113-13.653 13.653-13.653h126.549c94.976 0 114.901 55.893 114.901 102.741 0 27.136-7.211 48.64-21.504 64.469 34.816 14.379 53.589 46.763 53.589 93.611 0 68.309-51.243 109.099-137.045 109.099zm-198.144 0H228.054c-7.541 0-13.653-6.113-13.653-13.653v-.09.005-342.528c0-7.541 6.113-13.653 13.653-13.653h132.395c82.731 0 132.096 44.501 132.096 119.083 0 49.621-24.96 88.619-65.152 104.448l94.293 123.605a13.67 13.67 0 0 1 3.361 9.003c0 7.539-6.073 13.66-13.594 13.738h-.007zM512 0C229.248 0 0 229.248 0 512s229.248 512 512 512c282.795 0 512-229.248 512-512S794.88 0 512.043 0z"/></svg>