<svg xmlns="http://www.w3.org/2000/svg" width="32mm" height="138.7" viewBox="0 0 32 36.7"><path d="M10.7 36.7C8 36.7 4 35.9 0 32.3l3.1-3.5c5.6 5 11.4 3 13.2 1.4l.3-.3a19 19 0 01-10.4-5C1.7 20.3.7 14.3 3.9 11.1 7 8 13 8.9 17.6 13.2c.3.4 4.7 4.7 5.6 10.2a10.4 10.4 0 004.1-8.3 10.1 10.1 0 00-3-7.3c-2-2-5-3.1-8.1-3.1V0c4.4 0 8.4 1.6 11.3 4.4A14.7 14.7 0 0132 15.1 15 15 0 0122.7 29a12.3 12.3 0 01-3.3 4.6 13 13 0 01-8 3l-.7.1zm-2-22.8a2.2 2.2 0 00-1.5.6c-1.2 1.1-.4 4.4 2.3 7 0 0 4.2 4.1 9.2 3.7 0-4.4-4.3-8.5-4.4-8.6a9 9 0 00-5.5-2.7z" class="cls-1"/></svg>