<svg xmlns="http://www.w3.org/2000/svg" width="1024" height="1024"><path d="M511.104 0C242.261 0 21.803 207.36.939 470.912L275.371 584.32c23.253-15.829 51.328-25.173 81.579-25.173 2.688 0 5.333.171 8.021.256L487.04 382.678v-2.517c0-106.453 86.528-193.024 193.024-193.024 106.411 0 193.024 86.656 193.024 193.152s-86.613 193.067-193.024 193.067h-4.48L501.675 697.559c0 2.219.171 4.48.171 6.784 0 80-64.64 144.896-144.64 144.896-69.76 0-128.683-50.048-142.123-116.352l-196.48-81.365c60.843 214.912 258.133 372.48 492.501 372.48 282.752 0 511.957-229.248 511.957-512S793.813.002 511.104.002zM321.707 776.96l-62.848-26.027c11.179 23.168 30.464 42.624 56.064 53.333 55.339 22.997 119.168-3.243 142.165-58.667 11.221-26.88 11.264-56.277.213-83.157s-32-47.829-58.752-59.008c-26.624-11.093-55.04-10.624-80.128-1.28l64.981 26.88c40.789 17.067 60.117 64 43.051 104.747-16.939 40.832-63.872 60.16-104.704 43.179zm487.04-396.928c0-70.912-57.728-128.64-128.64-128.64-71.04 0-128.64 57.728-128.64 128.64 0 71.04 57.6 128.64 128.64 128.64 70.955 0 128.64-57.6 128.64-128.64zm-224.982-.213c0-53.419 43.221-96.683 96.64-96.683 53.291 0 96.683 43.264 96.683 96.683 0 53.376-43.392 96.64-96.683 96.64-53.461 0-96.64-43.264-96.64-96.64z"/></svg>