<svg xmlns="http://www.w3.org/2000/svg" width="1024" height="1024"><path fill="red" d="M1002.453 264.747c-12.365-43.307-45.781-76.722-88.183-88.866l-.905-.222c-79.787-21.376-400.896-21.376-400.896-21.376s-320.299-.427-400.896 21.376c-43.307 12.365-76.722 45.781-88.866 88.183l-.222.905C8.312 337.725.204 421.651.204 507.47c0 1.743.003 3.484.01 5.225l-.001-.268c-.004 1.198-.006 2.617-.006 4.035 0 85.813 8.107 169.732 23.598 251.033l-1.32-8.327c12.365 43.307 45.781 76.722 88.183 88.866l.905.222c79.701 21.419 400.896 21.419 400.896 21.419s320.256 0 400.896-21.419c43.307-12.365 76.722-45.781 88.866-88.183l.222-.905c13.59-71.472 21.364-153.686 21.364-237.715 0-3.173-.011-6.344-.033-9.513l.003.486c.024-2.951.037-6.439.037-9.929 0-84.041-7.776-166.267-22.648-245.996l1.278 8.245zM409.984 665.643V358.742l267.264 153.685z"/></svg>